<?xml version="1.0" encoding="utf-8"?>
<!DOCTYPE svg PUBLIC "-//W3C//DTD SVG 1.1//EN" "http://www.w3.org/Graphics/SVG/1.1/DTD/svg11.dtd">
<svg xmlns="http://www.w3.org/2000/svg" xmlns:xlink="http://www.w3.org/1999/xlink" viewBox="0 0 126 126">
<polygon points="33.866,55.497 45.41,60.86 45.41,58.311 36.68,54.487 36.68,54.438 45.41,50.614 45.41,48.065 33.866,53.428 "/>
<polygon points="81.783,50.614 90.707,54.438 90.707,54.487 81.783,58.311 81.783,60.86 93.327,55.569 93.327,53.356 81.783,48.065 
	"/>
<path d="M63.367,40.688c-7.607,0-13.774,6.167-13.774,13.774s6.167,13.774,13.774,13.774s13.773-6.167,13.773-13.774
	S70.975,40.688,63.367,40.688z M68.544,46.155l0.985-0.659c0,0-0.414-1.061-0.344-1.581c0.238-0.116,1.209,0.393,2.028,1.256
	c-0.552,2.054-1.847,1.809-1.847,1.809S68.42,46.957,68.544,46.155z M60.241,58.283c-0.061,0.308-0.432,1.049-0.678,1.541
	c-0.246,0.493-0.369,0.679-0.679,0.925c-0.309,0.25-0.492,0.679-0.492,0.679l-0.062,1.047c0,0,0.121,0.865,0.306,1.173
	c0.185,0.307-0.66,2.144-0.66,2.144c-0.536-0.106-0.834-0.728-1.02-1.218c-0.186-0.495-0.431-0.758-0.369-1.311
	c0.062-0.555-0.479-0.848-0.662-1.156c-0.184-0.312-0.432-0.741-0.432-1.049c0-0.309-0.677-0.741-0.677-0.741
	s-1.234-0.555-1.419-0.8c-0.185-0.247-0.372-1.298-0.432-1.727c-0.063-0.43,0.184-1.54,0.184-1.54s0.498-0.374,0.185-0.679
	c-0.309-0.308-0.368-1.112-0.368-1.112l-0.556-0.615c0,0-0.433-0.617-0.494-0.926c-0.062-0.308,0-0.493,0.062-0.802
	c0.061-0.31-0.123-0.863-0.123-1.17c2.304-5.649,6.167-6.967,6.167-6.967l0.309,1.292c0,0-0.678,0.186-1.046,0.064
	c-0.372-0.124-0.559-0.124-0.559-0.124l-0.491,0.677c0,0-0.188,0.433-0.249,0.68s0.123,0.615,0.123,0.615s0.862,0.062,0.862-0.184
	c0-0.247-0.121-0.37-0.121-0.37l-0.124-0.432c0,0,0.559-0.309,2.034-0.187c1.48,0.125,0.927,1.172,1.545,1.421
	c0.617,0.247-0.496,1.109-0.742,1.601c-0.246,0.494-0.616-0.617-0.616-0.617s0.37-0.427-0.246-0.554
	c-0.617-0.121-1.025,1.11-0.713,1.05c0.307-0.061,0.651,0.332,0.588,0.639c-0.062,0.309-0.062,0.285-0.37,0.962
	c-0.308,0.678-0.978,1.18-0.978,1.18s-0.315-0.192-0.133,0.179c0.189,0.369-0.061,1.232-0.061,1.479c0,0.245-0.74-0.432-0.861-1.05
	c-0.126-0.613-0.848-0.079-1.094-0.016c-0.247,0.063-0.697-0.107-0.816-0.413c-0.126-0.31-1.237,0.615-1.546,0.799
	c-0.307,0.186-0.182,0.68,0.309,0.433c0.493-0.247,0.924-0.062,0.802,0.434c-0.122,0.49-0.614,0.185-0.554,0.49
	c0.061,0.308,0.554,0.617,0.676,1.05c0.124,0.43,1.298,0.062,1.667-0.124c0.369-0.187,1.418-0.37,1.54,0.124
	c0.128,0.494,1.297,0.676,1.728,0.798c0.433,0.124,1.296,0.186,1.791,0.679C61.167,57.049,60.306,57.974,60.241,58.283z
	 M63.016,43.853c-0.063,0.618-1.047,1.418-0.924,1.667c0.124,0.249,0,1.303-0.863,0.377c-0.864-0.925-1.729-1.239-1.665-1.858
	c0.015-0.123,0.893-0.316,0.907-0.532c1.308-1.216,3.396-0.966,3.556-0.678C63.652,43.44,63.078,43.236,63.016,43.853z
	 M73.73,47.994c0.834,1.431,2.053,5.247,1.603,5.929c-0.271-0.122-0.498-0.224-0.498-0.224h-1.646l0.985,1.153
	c0,0,0.478,0.7,1.153,0.655c-0.445,5.157-4.749,8.47-4.749,8.47c-0.657-0.659-0.328-1.231-0.328-1.231l0.185-0.989l0.104-1.664
	c0,0,0-1.725-1.646-0.906c-1.768,0.451-1.031,0.451-2.815,0.575c-1.788,0.124-1.492-3.646-1.492-3.646
	c0-5.643,4.327-1.384,4.327-1.384c2.469,1.642,2.798-1.362,2.798-1.362l1.808-0.655l0.164-0.824l-0.263-1.149l-2.627-1.084
	c0,0-0.253,0.854,0.421,1.903c0,0-0.225,1.192-0.777,0.884l-1.522-0.765c0,0-0.513-0.222-1.334,0.273
	c-0.824,0.492-2.218-0.024-2.218-0.024s0.113-0.827,0.979-1.256l0.707-0.467c0,0-0.186-0.844-0.023-1.501
	c0.162-0.657,0.453-0.082,1.109-0.576c0.657-0.491,1.11,0.966,2.096,0.802c0.985-0.165,0.494-0.329,1.153-0.657
	c0.659-0.329,1.151,0.657,1.151,0.657l1.313,0.164C73.848,49.095,73.643,47.609,73.73,47.994z"/>
<path d="M96,79.92H30V16h46.33v20.46c0,1.11,0.9,2,2,2H96V79.92z M99.98,36.44c-0.01-0.47-0.15-0.93-0.48-1.29L79.84,12.68
	l-0.02-0.01c-0.11-0.13-0.25-0.24-0.4-0.34l-0.13-0.07c-0.12-0.07-0.25-0.13-0.39-0.17l-0.11-0.03c-0.149-0.04-0.3-0.06-0.46-0.06
	H30c-2.21,0-4,1.79-4,4v94c0,2.21,1.79,4,4,4h66c2.21,0,4-1.79,4-4V36.67C100,36.59,99.99,36.52,99.98,36.44z M28.799,86.07h3.624
	l1.417,8.665c0.264,1.872,0.552,3.769,0.816,5.664h0.096c0.36-1.896,0.744-3.816,1.128-5.664l2.064-8.665h3.024l2.064,8.665
	c0.384,1.824,0.744,3.744,1.128,5.664h0.12c0.264-1.92,0.528-3.816,0.792-5.664l1.392-8.665h3.384l-3.289,17.762h-4.416
	l-1.992-8.785c-0.288-1.392-0.552-2.76-0.768-4.104h-0.096c-0.24,1.344-0.48,2.712-0.768,4.104l-1.944,8.785h-4.344L28.799,86.07z
	 M52.511,86.07h4.873c5.424,0,8.785,2.809,8.785,8.809c0,5.977-3.36,8.953-8.593,8.953h-5.064V86.07z M57.167,100.976
	c3.312,0,5.376-1.776,5.376-6.097c0-4.344-2.064-5.977-5.376-5.977h-1.104v12.073H57.167z M66.623,101.048l2.448-1.8
	c0.695,1.296,1.632,1.848,2.64,1.848c1.561,0,2.377-0.84,2.377-3.288V86.07h3.552v12.025c0,3.336-1.68,6.072-5.496,6.072
	C69.551,104.168,67.823,103.112,66.623,101.048z M90.239,99.271h-5.761l-1.248,4.561h-3.6l5.688-17.762h4.176l5.713,17.762h-3.721
	L90.239,99.271z M89.472,96.512l-0.528-1.944c-0.552-1.849-1.032-3.889-1.561-5.809h-0.096c-0.456,1.944-0.984,3.96-1.512,5.809
	l-0.528,1.944H89.472z"/>
</svg>
