<?xml version="1.0" encoding="utf-8"?>
<!DOCTYPE svg PUBLIC "-//W3C//DTD SVG 1.1//EN" "http://www.w3.org/Graphics/SVG/1.1/DTD/svg11.dtd">
<svg xmlns="http://www.w3.org/2000/svg" xmlns:xlink="http://www.w3.org/1999/xlink" viewBox="0 0 126 126">
<g>
	<path d="M63.63,38.179c-8.568,0-15.372,6.803-15.372,15.371s6.804,15.372,15.372,15.372s15.372-6.804,15.372-15.372
		C78.75,44.981,71.946,38.179,63.63,38.179z M69.174,44.226l1.008-0.756c0,0-0.504-1.26-0.504-1.764
		c0.252-0.252,1.26,0.504,2.269,1.512c-0.505,2.268-2.017,2.016-2.017,2.016S69.174,44.981,69.174,44.226z M60.102,57.582
		c0,0.252-0.504,1.26-0.756,1.764s-0.504,0.756-0.756,1.009c-0.252,0.252-0.504,0.756-0.504,0.756v1.26c0,0,0.252,1.008,0.252,1.26
		c0.252,0.252-0.756,2.269-0.756,2.269c-0.504,0-1.008-0.757-1.008-1.261c-0.252-0.504-0.504-0.756-0.504-1.512
		c0-0.504-0.504-1.008-0.756-1.26c-0.253-0.252-0.505-0.756-0.505-1.261c0-0.504-0.756-0.756-0.756-0.756s-1.26-0.504-1.512-1.008
		c-0.252-0.252-0.504-1.512-0.504-2.016s0.252-1.765,0.252-1.765s0.504-0.504,0.252-0.756s-0.504-1.26-0.504-1.26l-0.504-0.756
		c0,0-0.504-0.756-0.504-1.008s0-0.504,0-1.008c0-0.252-0.252-1.009-0.252-1.261c2.52-6.3,6.804-7.812,6.804-7.812l0.252,1.512
		c0,0-0.756,0.252-1.26,0s-0.504-0.252-0.504-0.252l-0.505,0.756c0,0-0.252,0.504-0.252,0.756s0.252,0.756,0.252,0.756
		s1.009,0,1.009-0.252s-0.252-0.504-0.252-0.504L56.07,43.47c0,0,0.504-0.252,2.268-0.252c1.764,0.252,1.008,1.26,1.764,1.512
		s-0.504,1.261-0.756,1.765s-0.756-0.757-0.756-0.757s0.504-0.504-0.252-0.504c-0.756-0.252-1.26,1.261-0.756,1.261
		c0.252,0,0.756,0.252,0.756,0.756c0,0.252,0,0.252-0.504,1.008c-0.252,0.756-1.008,1.26-1.008,1.26s-0.252-0.252-0.252,0.252
		c0.252,0.505,0,1.261,0,1.765c0,0.252-0.756-0.504-1.009-1.26c-0.252-0.757-1.008,0-1.26,0s-0.756,0-1.008-0.505
		c-0.252-0.252-1.26,0.756-1.764,1.009c-0.252,0.252-0.252,0.756,0.252,0.504s1.008,0,1.008,0.504
		c-0.252,0.504-0.756,0.252-0.504,0.504c0,0.252,0.504,0.756,0.756,1.26s1.512,0,1.764-0.252c0.504-0.252,1.513-0.504,1.765,0.252
		c0.252,0.504,1.512,0.756,2.016,1.008s1.512,0.252,2.016,0.756C61.11,56.322,60.102,57.33,60.102,57.582z M63.126,41.706
		c0,0.756-1.26,1.512-1.008,1.764s0,1.512-1.008,0.504c-1.009-1.008-2.017-1.26-1.765-2.016c0-0.252,1.008-0.252,1.008-0.504
		c1.513-1.26,3.78-1.008,4.032-0.756C63.882,41.202,63.126,40.95,63.126,41.706z M74.97,46.242c1.008,1.512,2.269,5.796,1.765,6.552
		c-0.252-0.252-0.504-0.252-0.504-0.252h-1.765l1.008,1.26c0,0,0.504,0.756,1.261,0.756c-0.505,5.796-5.292,9.324-5.292,9.324
		c-0.757-0.756-0.253-1.26-0.253-1.26l0.253-1.008V59.85c0,0,0-2.016-1.765-1.008c-2.016,0.504-1.26,0.504-3.023,0.756
		c-2.017,0.252-1.765-4.031-1.765-4.031c0-6.301,4.788-1.513,4.788-1.513c2.772,1.765,3.024-1.512,3.024-1.512l2.016-0.756
		l0.252-1.008l-0.252-1.261l-3.024-1.26c0,0-0.252,1.008,0.505,2.017c0,0-0.252,1.26-0.757,1.008l-1.764-0.756
		c0,0-0.504-0.252-1.512,0.252s-2.521,0-2.521,0s0-1.009,1.008-1.513l0.757-0.504c0,0-0.252-1.008,0-1.764s0.504,0,1.26-0.756
		c0.756-0.505,1.26,1.008,2.268,1.008c1.008-0.252,0.504-0.252,1.261-0.756c0.756-0.252,1.26,0.756,1.26,0.756l1.512,0.252
		C75.222,47.502,74.97,45.738,74.97,46.242z"/>
	<path d="M99.918,81.774H26.586V10.71h51.408v22.68c0,1.26,1.008,2.269,2.268,2.269h19.656V81.774L99.918,81.774z M104.202,33.39
		c0-0.504-0.252-1.008-0.504-1.512L81.773,6.931l0,0c0-0.253-0.252-0.253-0.504-0.505h-0.252c-0.252,0-0.252-0.252-0.504-0.252l0,0
		c-0.252,0-0.252,0-0.504,0H26.334c-2.521,0-4.536,2.017-4.536,4.536v104.58c0,2.52,2.016,4.536,4.536,4.536h73.332
		c2.52,0,4.536-2.017,4.536-4.536V33.642C104.202,33.39,104.202,33.39,104.202,33.39z M29.862,107.73l-4.536-16.633h3.78
		l2.771,11.34l3.276-11.34h4.535l3.276,11.593l2.772-11.593h3.779l-4.536,16.633H40.95l-3.78-12.349l-3.78,12.349H29.862z
		 M51.03,91.098h6.804c1.512,0,2.772,0,3.528,0.252c1.008,0.253,2.016,0.757,2.771,1.513s1.26,1.512,1.765,2.771
		c0.504,1.008,0.504,2.269,0.504,4.032c0,1.26-0.252,2.521-0.504,3.528c-0.505,1.26-1.009,2.268-2.017,3.023
		c-0.756,0.504-1.512,1.009-2.52,1.261c-0.756,0.252-2.017,0.252-3.276,0.252H51.03V91.098L51.03,91.098z M54.81,93.87v10.836h2.772
		c1.008,0,1.764,0,2.268-0.252c0.505-0.252,1.009-0.252,1.513-0.756c0.504-0.252,0.756-0.756,1.008-1.513
		c0.252-0.756,0.252-1.764,0.252-3.023s-0.252-2.269-0.252-3.024c-0.252-0.756-0.504-1.26-1.008-1.512
		c-0.504-0.504-1.008-0.756-1.765-0.756c-0.504,0-1.512-0.252-3.023-0.252H54.81V93.87z M75.978,91.098h3.78v10.584
		c0,1.261-0.252,2.521-0.504,3.276c-0.252,1.008-1.008,1.764-2.016,2.268c-1.008,0.505-2.269,0.757-3.78,0.757
		c-1.764,0-3.276-0.505-4.284-1.261c-1.008-1.008-1.512-2.268-1.512-4.031l3.527-0.253c0,1.009,0.253,1.513,0.505,2.017
		c0.504,0.504,1.008,1.008,1.764,1.008s1.512-0.252,1.764-0.756s0.504-1.26,0.504-2.521V91.098H75.978z M99.666,107.73h-4.032
		l-1.512-3.78h-7.309l-1.512,3.78H81.27l7.309-16.633h4.032L99.666,107.73z M92.862,101.178l-2.521-6.048l-2.52,6.048H92.862z"/>
</g>
</svg>
